<?xml version="1.0" encoding="UTF-8"?>
<!DOCTYPE svg PUBLIC "-//W3C//DTD SVG 1.1//EN" "http://www.w3.org/Graphics/SVG/1.1/DTD/svg11.dtd">
<!-- Creator: CorelDRAW X7 -->
<svg xmlns="http://www.w3.org/2000/svg" xml:space="preserve" width="20mm" height="17mm" version="1.1" style="shape-rendering:geometricPrecision; text-rendering:geometricPrecision; image-rendering:optimizeQuality; fill-rule:evenodd; clip-rule:evenodd"
viewBox="0 0 2000 1700"
 xmlns:xlink="http://www.w3.org/1999/xlink">
 <defs>
  <style type="text/css">
   <![CDATA[
    .str0 {stroke:black;stroke-width:25}
    .str1 {stroke:black;stroke-width:7.62}
    .fil25 {fill:#181E39}
    .fil0 {fill:#182139}
    .fil23 {fill:#19223A}
    .fil31 {fill:#192543}
    .fil17 {fill:#1A233C}
    .fil34 {fill:#262A44}
    .fil41 {fill:#2B3349}
    .fil2 {fill:#359ACA}
    .fil42 {fill:#383646}
    .fil11 {fill:#466A2C}
    .fil18 {fill:#488ABA}
    .fil15 {fill:#52363C}
    .fil27 {fill:#66972E}
    .fil4 {fill:#6EAA2C}
    .fil16 {fill:#73AC32}
    .fil3 {fill:#84BC32}
    .fil5 {fill:#8EC535}
    .fil20 {fill:#8EC636}
    .fil6 {fill:#91C635}
    .fil8 {fill:#B8BAC4}
    .fil24 {fill:#BBE34F}
    .fil29 {fill:#C5E757}
    .fil28 {fill:#DD484B}
    .fil26 {fill:#E5E7E8}
    .fil40 {fill:#EFAB74}
    .fil10 {fill:#F4F4F5}
    .fil13 {fill:#F7F8F9}
    .fil38 {fill:#F9F8F6}
    .fil30 {fill:#F9FAFA}
    .fil9 {fill:#FABE89}
    .fil12 {fill:#FBBB84}
    .fil33 {fill:#FBFCFC}
    .fil37 {fill:#FCB97B}
    .fil32 {fill:#FCC897}
    .fil36 {fill:#FDC285}
    .fil35 {fill:#FDCE57}
    .fil14 {fill:#FDD6AB}
    .fil39 {fill:#FDDDAD}
    .fil19 {fill:#FEC843}
    .fil7 {fill:#FED9AC}
    .fil22 {fill:#FEDAB2}
    .fil21 {fill:#FEDBB0}
    .fil1 {fill:#FEDDB2}
   ]]>
  </style>
 </defs>
 <g id="Layer_x0020_1">
  <metadata id="CorelCorpID_0Corel-Layer"/>
  <g id="_1866837248976">
   <path class="fil0" d="M655 1499c7,4 9,12 18,12 1,-9 0,-30 4,-38l1 -1c-1,-6 12,-39 15,-45 13,-2 23,1 35,-5 10,-6 9,-11 23,-14l165 -15c6,0 10,-1 18,-2 12,0 25,-3 38,-1 4,4 13,19 17,25 9,15 32,47 44,60 3,3 8,7 10,10l34 24c5,3 18,7 23,11 14,2 17,11 12,17 -5,6 -22,4 -31,4l-53 -1c-6,0 -6,-2 -15,-2 -24,0 -43,-2 -67,-2 -6,0 -12,0 -18,0 -7,0 -6,-2 -14,-2 -15,0 -20,0 -33,-2 -8,-1 -26,0 -35,0 -12,-1 -20,-2 -32,-2 -23,0 -47,-1 -70,-1 -13,0 -16,6 -22,11 -4,5 -12,11 -20,13 -17,5 -48,4 -61,-4 -8,-4 -12,-10 -18,-15 -8,-7 -14,-6 -28,-6 -24,0 -47,0 -70,0 -24,0 -44,2 -69,2l-86 1c-7,0 -7,2 -15,2 -11,0 -23,0 -35,0 -11,0 -20,1 -33,1 -12,0 -23,0 -35,0 -22,0 -79,9 -61,-14 3,-4 -1,0 4,-4 8,-5 10,-6 19,-10 2,-1 0,0 2,-1 3,-1 5,-1 8,-2 6,-1 15,-10 18,-13 7,-7 6,-13 16,-16 4,-4 11,-10 16,-14 13,-10 58,-55 65,-59 6,-4 21,-2 30,-1 10,0 19,2 31,2 21,0 71,5 92,6 19,0 12,2 25,7 19,8 70,11 88,10 7,0 24,1 30,3 25,6 33,-1 27,11l-8 24c-7,26 -2,22 1,36zm386 -61c1,-13 48,-59 59,-69 17,-17 36,-32 58,-42 14,-6 25,-4 41,1 5,1 9,2 14,4 10,3 15,5 24,9 7,3 17,7 25,9 26,10 88,37 114,38 8,0 6,0 14,2 55,2 89,82 76,118 -7,1 -10,-1 -17,-1 -34,-1 -69,18 -102,17 -17,-1 -40,-6 -55,-12l-39 -19c-5,-3 -2,1 -3,-4 2,-2 11,-6 14,-7 5,-1 10,-1 11,-5 2,-12 -33,0 -40,4 -9,5 -21,13 -28,19 -8,7 -16,13 -26,20 -14,8 -31,8 -37,0 -1,-1 -1,-1 -3,-3 -8,-9 2,-20 9,-28 24,-27 21,-25 51,-49 5,-4 9,-7 14,-11 5,-5 9,-5 9,-14 -9,-1 -32,13 -39,17 -27,21 -34,30 -57,54 -9,9 -15,15 -35,5l-3 -2c0,0 0,0 0,0 -6,-2 -15,-8 -10,-15l25 -31c5,-6 9,-10 13,-15 5,-5 51,-49 59,-53l0 -7c-12,-2 -38,17 -44,21 -18,14 -34,32 -48,48 -5,6 -11,12 -16,16 -7,6 -14,9 -23,3 -4,-3 -14,-12 -5,-18zm677 -110c16,3 36,19 47,29 13,10 25,24 33,41 12,28 30,92 -7,107 -17,8 -50,11 -69,11 -8,0 -13,1 -20,1 -24,1 -75,1 -96,4 -12,1 -27,-1 -39,1 -8,1 -46,0 -59,0 -3,0 -17,1 -19,-1 -2,-3 -1,0 0,-5 2,-22 1,-41 -5,-63 -1,-7 -5,-13 -6,-20 -6,-12 -20,-32 -30,-41 -7,-6 -13,-12 -21,-17 -11,-6 -25,-9 -27,-11 1,-5 -2,-3 4,-5 3,-1 4,-1 7,-1 21,-1 29,2 45,3 21,0 39,-3 61,-2 20,0 39,3 59,4 17,0 44,3 58,0 1,-7 -1,-6 -7,-8l-33 -11c-9,-2 -16,-5 -25,-6 -6,-2 -21,-1 -26,-4 1,-5 13,-8 17,-10 25,-10 40,-12 69,-13 11,-1 14,-1 25,0 16,1 56,8 64,17zm-955 -14c4,4 4,9 5,15 3,14 -14,33 -23,36 -7,-6 -8,-31 -10,-43 -2,-18 -10,-26 -10,-38 5,1 14,9 22,13 5,3 16,11 16,17zm-115 -4c4,5 13,42 15,48 2,8 3,16 6,24 2,8 6,16 -4,20 -24,10 -34,0 -42,-15 -3,-8 -16,-37 -17,-45 -2,-1 -8,-18 -9,-21 -5,-13 -5,-20 -12,-20 -5,6 6,38 6,46l1 1c0,1 1,1 1,1l1 5c4,9 16,44 16,47 -5,2 -15,3 -23,2 -1,0 -8,-1 -9,-2 -11,-3 -23,-31 -23,-35 -3,-2 -7,-16 -9,-20 -2,-4 -3,-6 -5,-10 0,-1 -2,-5 -2,-5 -2,-4 0,-2 -4,-4 -5,12 6,30 4,40 4,2 4,11 6,15 2,7 5,8 5,16 -18,1 -24,-4 -30,-16 -4,-8 -11,-22 -12,-31 -3,-4 -8,-33 -5,-41 6,-11 43,-36 57,-47 9,-7 22,-13 30,-21 8,-8 16,-21 33,-17l41 12c13,4 25,5 33,19 4,7 13,30 13,36l2 3c2,6 3,14 4,20 2,9 4,16 5,25 2,13 7,37 4,50 -3,12 -25,21 -36,-3l-14 -46 -12 -32c-2,-6 -5,-11 -7,-17 -5,-13 -5,-13 -12,-12 -3,9 5,22 4,30zm297 -61c3,-12 7,-22 8,-35 2,-17 4,-38 0,-56 -1,-8 -3,-10 -2,-19 12,1 17,13 21,22 6,12 2,58 2,78 0,14 2,26 -11,31 -12,5 -20,-10 -18,-21zm238 -10c0,-19 1,-47 4,-64 3,-14 11,-40 31,-41 0,5 -2,11 -4,16 -4,14 -5,37 -5,52 0,19 7,44 3,52 -7,14 -29,11 -29,-15zm-160 -161c0,-4 2,-8 2,-13 0,-4 0,-10 0,-15 -1,-6 -4,-20 -3,-25 -4,-6 -8,-21 -7,-25 4,0 13,2 19,2 22,3 38,0 57,-4 35,-7 108,-48 137,-67 6,-4 18,-15 25,-15 2,20 -2,43 1,63 1,11 2,17 5,27 2,5 10,19 10,22 -8,6 -18,10 -27,16 -33,20 -68,46 -95,72 -21,21 -25,33 -46,37 -12,2 -30,3 -43,2 -3,-5 -5,-10 -7,-16 -3,-5 -6,-9 -9,-14 -5,-7 -15,-18 -23,-24 -28,-21 -34,-18 -24,-36 3,-7 5,-12 10,-14 5,7 5,26 9,34 8,-2 4,-3 9,-7zm468 -215c12,2 30,12 37,18 31,29 29,59 28,97 0,9 -2,15 -1,24 1,2 59,35 53,105 -5,-1 -7,-4 -10,-7 -3,-3 -6,-6 -8,-8 -4,-3 -14,-10 -20,-12 -33,-13 -88,-8 -124,-3 -30,4 -50,9 -79,20 -9,3 -17,5 -25,8 -26,9 -64,29 -85,44 -6,5 -13,9 -19,14 -4,3 -12,12 -18,13 -1,-19 9,-37 1,-48 -12,1 -11,-3 -23,5 -8,5 -8,8 -14,14 -4,11 -10,19 -12,31 -6,27 -14,18 -17,27 7,0 7,-2 12,-1 4,21 -14,56 21,72 4,2 10,2 16,1 29,0 25,-32 21,-51 -6,-30 -5,-30 14,-42 18,-12 18,-14 40,-26 33,-18 60,-28 95,-40l54 -14c5,-2 10,-3 15,-4 5,-1 11,-1 15,-2 28,-4 35,-5 65,-5 25,0 35,1 49,18 6,6 10,11 14,18 14,19 42,51 59,70 6,7 9,12 15,18 12,12 73,80 76,88 -10,-2 -16,-6 -25,-9 -23,-7 -17,-4 -36,-9 -11,-2 -32,-5 -42,-4 -8,2 -20,2 -29,3 -37,4 -79,22 -107,43 -10,7 -13,5 -26,5 -15,0 -14,0 -19,-10 -7,-15 -12,-28 -14,-43 -1,-9 -2,-15 -2,-25l3 -19c0,-2 0,-2 -1,-4 0,-2 0,-1 -1,-2 -9,3 -13,39 -14,46 -1,9 -2,17 -2,27l2 28c-14,1 -23,1 -34,4 -49,14 -23,29 -85,5 -8,-3 -19,-8 -27,-11 -31,-12 -47,-21 -82,-30 -26,-6 -40,-3 -61,10 -6,4 -15,11 -21,17 -7,5 -13,9 -20,15 -15,14 -59,59 -69,75 -4,-2 -3,-1 -6,-4l-8 -12c-21,-33 -23,-35 -52,-35 -20,1 -22,2 -28,2 -10,0 -20,0 -30,0 -7,0 -9,1 -15,2l-30 0c-3,0 -4,0 -7,0 -2,1 1,1 -5,2 -2,-3 -3,-3 -1,-8 0,-3 1,-7 2,-10 6,-33 6,-71 -2,-104 -3,-17 -9,-26 -11,-36 -2,-3 -6,-10 -6,-13 -3,-2 -4,-3 -8,-3 -1,13 8,52 8,69 1,14 1,22 0,36 -1,13 -7,19 -9,29 -4,-1 -6,-2 -11,-2 0,9 9,16 5,36 -2,7 -5,9 -14,9 -9,0 -13,1 -21,1 0,-7 13,-19 16,-32 2,-12 -2,-30 -7,-39 -16,-28 -29,-21 -48,-51 -7,-12 -21,-25 -36,-29 -14,-5 -42,-9 -57,-13 1,-6 7,-8 13,-9 1,-1 10,-4 13,-5 54,-20 64,-28 95,-71 7,-11 36,-57 51,-57 4,2 9,6 10,9 4,2 18,21 31,32l68 56c14,15 18,18 14,44 -4,17 -11,27 -11,48 0,34 61,44 63,-4 0,-10 -4,-50 0,-54 1,-1 -2,-2 4,-1 4,1 4,5 13,5 0,-9 -6,-14 -11,-21 -5,-7 -8,-14 -12,-21 -16,-26 -19,-27 -40,-25l-2 20c-6,-2 -22,-20 -25,-25 -3,-1 -43,-36 -49,-41 -11,-12 -31,-33 -38,-51 -9,-25 -1,-48 10,-69 5,-9 11,-19 18,-27 8,-11 18,-24 24,-14 8,4 16,12 24,17 4,2 20,13 23,17l55 30c1,4 0,8 1,11 0,3 1,6 1,9 1,20 -1,22 -12,31 -7,6 -7,30 -43,-27 -5,-9 -13,-9 -9,-24 3,-11 9,-16 8,-22 -1,-2 0,-1 -1,-3l-7 1c-4,6 -17,14 -18,37 0,21 5,21 17,39 18,27 33,37 59,55 27,20 41,31 53,61 6,17 9,23 9,45 0,6 -1,47 -3,49 -1,18 0,36 -1,54 0,4 -1,5 -1,11 0,10 1,28 5,35 8,-1 8,-2 9,-8 3,-11 2,-82 5,-87 1,-2 1,-1 1,-2 -1,-4 2,-49 2,-61 0,-6 -3,-16 1,-19 4,-3 7,-1 12,-1 7,1 30,-3 37,-3 5,-4 10,1 21,-5 1,-3 6,-10 8,-12l4 -4c2,-5 31,-33 36,-37 26,-22 57,-44 88,-61 38,-22 61,-33 101,-51 37,-16 94,-40 121,-67 9,-10 9,-14 14,-21 1,-11 -1,-15 -1,-23 -6,-5 -6,-13 -15,-15l-9 -4c-2,-1 -3,-1 -7,-2 -5,-1 -10,-2 -15,-3l-55 -6c-19,0 -50,-4 -60,-2 -1,10 13,8 21,10 18,3 11,1 27,3l14 2c5,1 6,1 13,2 6,0 19,4 25,5 7,2 6,1 12,3 43,15 31,31 2,49l-63 31c0,1 -1,1 -2,1l-76 35c-6,2 -14,7 -22,7 -13,-11 -13,-29 -13,-49 0,-17 -2,-47 2,-60 2,-8 9,-13 14,-18 6,-6 10,-11 16,-18 9,-11 21,-34 28,-37 12,4 5,4 21,9l53 10c30,2 34,5 52,8 4,0 5,0 10,1l14 4c2,1 2,1 3,2zm-726 -130c-20,-1 -52,-91 -24,-136 21,-33 16,-1 17,17l7 119zm282 -281l-1 3c-2,4 -3,4 -3,9 22,0 51,-11 68,-17 36,-15 70,-38 97,-64l36 -43 1 5c1,6 0,19 2,31 11,63 20,87 54,142 5,8 11,16 17,24 4,4 11,12 16,15 2,1 4,2 6,3 5,8 -4,92 -7,112l-10 59c4,1 20,-6 22,-8 9,-8 18,-23 24,-33 2,-5 7,-16 10,-18 0,-11 30,-61 67,-50 33,9 43,50 39,75 -3,18 -5,28 -14,43 -16,28 -44,57 -80,68 -5,2 -22,4 -27,1 -9,-1 -14,-5 -19,-9 -3,-2 -6,-5 -8,-7 -2,-3 -3,-5 -6,-7 -5,3 -11,18 -15,25 -7,13 -22,34 -33,45 -35,33 -98,74 -145,96 -29,14 -55,29 -99,25 -41,-4 -71,-22 -101,-41 -5,-4 -8,-4 -12,-9 -8,-2 -42,-29 -49,-35 -16,-11 -30,-26 -42,-40 -13,-14 -23,-33 -31,-50 -17,-40 -16,-95 -18,-138l-5 -71c-1,-6 -5,-28 -3,-34 4,-15 30,-80 34,-83 2,-7 17,-28 23,-32 6,-4 34,-11 44,-13 16,-2 31,-7 45,-11 7,-1 15,-4 22,-6 6,-3 15,-7 20,-8 -1,7 -21,29 -28,36 -4,3 -9,6 -7,13 17,1 31,-2 46,-5 31,-6 41,-13 69,-27l30 -17c-1,4 -21,43 -29,46zm455 -29l-7 -1c-1,3 -2,5 0,13 5,21 2,38 -1,59l-7 33c-4,15 -17,54 -26,66 -10,1 -23,-6 -49,4 -4,2 -9,4 -12,6 -10,6 -18,13 -23,21 -2,3 -2,3 -4,5 -3,3 -6,11 -7,10 0,-1 -1,0 -1,0 -1,-17 3,-43 0,-58 -4,-16 1,-36 -3,-55 -5,-19 -5,-28 -13,-47 -4,-11 -9,-36 -13,-46 -3,0 -3,-1 -6,2 0,27 4,50 4,76l-3 -3c-2,-1 -2,-2 -3,-3 -12,-14 -9,-14 -17,-26 -5,-6 -9,-11 -11,-19 -4,-10 -9,-19 -12,-29 -10,-29 -10,-38 -15,-66 -3,-13 -3,-69 -1,-77 1,-6 0,-11 1,-19 0,-5 4,-11 -3,-13 -7,2 -28,38 -35,47 -7,10 -7,11 -17,23 -4,5 -1,3 -9,11 -4,5 -5,8 -9,12 -6,6 -13,15 -21,20 -4,3 -6,7 -11,10l-31 21c-3,2 -3,2 -6,4 -8,6 -15,8 -22,10 -4,1 -4,2 -7,2 0,-4 6,-11 8,-16 2,-4 3,-4 5,-7 7,-14 17,-42 19,-45 1,-2 1,-2 2,-4l18 -52c1,-1 2,-4 2,-5 0,-3 0,0 -1,-2l-1 -2c-7,1 -3,-1 -7,4l-19 26c-3,3 -6,6 -9,9 -16,16 -12,14 -28,27 -3,3 -6,7 -9,10 -3,3 -5,5 -10,8 -4,3 -4,5 -9,9 -5,3 -8,5 -11,7l-18 11c-14,10 -10,5 -18,10 -20,10 -17,6 -27,10l34 -59c1,-3 2,-6 3,-9l0 -6c-6,0 -11,5 -14,8 -4,4 -1,1 -7,5 -3,1 -4,2 -7,4 -10,6 -41,21 -52,25 0,0 -2,1 -2,1 -1,0 -1,0 -1,0l-57 17c-3,1 -4,2 -9,3l-19 4c-15,4 -23,3 -40,9l-32 15c-6,3 -9,3 -14,9 -4,4 -8,14 0,16 4,0 5,-1 16,-5 3,-1 5,-1 6,-2 -1,10 -13,22 -18,37l-14 52c-9,-2 -19,-38 -19,-53 0,-13 1,-37 4,-49 2,-7 3,-8 0,-14 -7,0 -8,4 -10,8l-10 23c-2,4 -2,9 -4,12 -3,-5 -5,-34 -4,-42 0,-4 2,-6 2,-11 0,-14 6,-36 16,-48 1,-2 1,-2 2,-3 6,-8 9,-11 17,-19 7,-8 10,-8 10,-15l-10 1 -75 29c-2,-10 24,-50 33,-59 23,-25 17,-19 50,-44 4,-3 7,-4 11,-6 10,-7 17,-13 29,-18l-1 -7c-7,-3 -4,0 -12,0 -2,1 -4,0 -7,1 -4,0 0,0 -5,1 -3,0 -12,0 -15,0 -6,-1 -4,-2 -11,-2 -14,0 -24,-3 -36,-6 -7,-2 -7,0 -10,-4 2,-3 -2,0 4,-2l16 -5c12,-5 26,-10 37,-17l16 -11c13,-6 22,-14 33,-20 6,-4 10,-7 17,-10 53,-28 58,-30 121,-42l25 -3c5,0 10,1 14,0 11,-2 13,0 23,0 5,1 10,1 14,1 1,-8 -5,-8 -13,-10 -5,-1 -13,-2 -18,-3l-30 -3c-3,-1 -7,-1 -9,-3 0,0 0,0 1,0l11 -4c5,-1 7,-1 11,-3 16,-4 32,-7 48,-10 10,-1 19,-1 28,-2 22,-2 48,-1 71,1l13 2c7,1 18,4 23,5 24,6 42,14 63,24 25,13 45,30 62,49 3,3 4,4 6,8 1,1 2,2 3,4 3,3 0,1 5,2 4,-4 2,-45 2,-50 1,-26 -6,-27 -8,-45 11,2 32,32 37,41 28,48 12,67 12,101 8,0 10,-2 16,-4 0,0 3,-1 3,-1l7 -1c27,-3 23,-8 57,3 13,5 27,12 38,21 6,6 13,9 17,18 -8,-1 -12,-4 -19,-6 -14,-4 -30,-2 -45,-2 -9,0 -13,-1 -12,8 2,1 6,2 9,3l23 9c2,1 5,3 8,4l29 24c5,4 14,18 18,24 18,27 20,45 26,75 2,13 0,63 -6,71l-12 -31zm-833 747c-9,0 -19,6 -28,9 -38,13 1,6 -39,21 -5,2 -2,1 -6,3 -7,4 -12,9 -17,15 -3,3 -5,5 -8,8 -7,5 -14,7 -20,12 -2,2 -3,3 -5,4 -2,1 -3,2 -5,3 -12,12 -15,13 -26,22 -4,3 -6,4 -10,7 -26,21 -27,25 -28,50 0,8 2,8 3,13 1,5 1,9 2,14 6,36 13,28 -26,27 -11,0 -23,0 -35,0 -6,0 -79,-1 -83,-3 -4,-1 -15,-3 -19,1 -1,0 -1,0 -1,0 0,0 -1,1 -1,1 -9,6 -10,9 -18,17 -2,2 -6,6 -7,8 -1,6 -43,41 -51,49 -5,5 -11,10 -17,16l-26 23c-13,7 -17,6 -30,21 -6,6 -11,10 -5,25 8,22 17,20 48,20 23,0 48,1 72,1 22,0 52,2 72,0 21,-2 50,0 71,0 15,0 175,-1 181,2 7,3 12,9 21,12 22,10 37,6 64,7 14,0 19,-1 30,-6 7,-3 17,-11 22,-12 7,-2 199,0 217,0 48,0 93,2 142,2 14,0 20,-1 27,-8 11,-11 7,-6 25,-4 30,2 31,-2 50,-18 5,-4 15,-12 20,-14 22,-8 72,39 140,32 14,-2 53,-11 61,-11 11,-1 21,3 29,6 10,5 14,6 28,7 30,3 108,-1 142,-2 14,0 68,-2 83,-4 6,-1 12,0 18,0 51,-1 103,-8 115,-57 4,-18 -2,-41 -2,-60 -2,-27 -22,-68 -37,-88 -19,-26 -39,-47 -59,-69 -20,-23 -39,-46 -58,-70l-42 -53c-7,-9 -9,-9 -9,-22 1,-46 1,-69 -22,-102 -5,-7 -9,-13 -14,-18 -20,-23 -11,-19 -14,-48 0,-9 -1,-19 -2,-28 -7,-80 -73,-99 -153,-108 0,-4 4,-5 12,-10 34,-24 60,-57 68,-96 7,-33 5,-65 -13,-93 -3,-4 -8,-9 -6,-14 2,-5 6,-11 8,-16 6,-13 13,-37 17,-51 3,-11 5,-25 9,-36 3,-10 10,1 23,-68 7,-40 2,-80 -12,-118 -4,-11 -14,-28 -15,-30 8,1 10,7 20,8 -1,-17 -19,-48 -29,-60 -10,-12 -21,-23 -33,-33 -3,-1 -12,-6 -13,-8 6,-3 37,2 46,4l6 3c4,1 2,1 6,0 -4,-9 -38,-31 -58,-37 -18,-5 -49,-7 -68,-2 -5,1 -13,5 -19,4 -2,-45 -16,-71 -42,-98 -21,-24 -55,-46 -99,-51 1,11 41,46 39,72 -4,-1 -5,-4 -8,-6 -15,-11 -43,-24 -61,-31 -27,-10 -46,-14 -74,-19 -5,-1 -9,0 -14,-1 -7,0 -17,-2 -25,-2 -31,-3 -38,2 -52,2 -6,0 -20,1 -26,3 -92,18 -146,46 -220,96 -10,6 -22,13 -33,20 -10,6 -23,13 -34,18 -23,10 -45,19 -69,24 -6,1 -10,0 -11,2 -6,5 21,27 26,31 24,16 44,17 43,21 0,2 -2,3 -4,5 -28,24 -47,57 -62,87 -4,9 -5,9 -5,21 0,7 -2,18 1,23 5,4 31,-1 37,-2 4,-1 6,-3 11,-3 0,3 -7,39 -7,50 -1,30 7,68 23,93 4,6 9,10 13,17 18,27 14,9 -4,36 -12,21 -21,58 -17,79l4 28c3,10 5,16 8,25 7,18 18,36 36,48 15,10 13,1 16,18 10,44 34,84 68,116 4,3 14,13 16,17 0,0 -53,65 -53,111 -1,36 4,22 -16,38 -23,18 -40,63 -75,93 -7,6 -26,15 -39,19z"/>
   <path class="fil1" d="M913 749c11,0 3,2 13,4l46 3c28,2 140,11 167,10 10,0 5,-2 11,-4 3,1 5,1 6,9 0,5 -1,10 -1,14 -2,8 -4,16 -7,24 -5,10 -16,29 -24,38 -5,5 -11,9 -16,15 -8,7 -33,20 -45,21 -25,3 -39,2 -63,-2 -41,-9 -70,-48 -79,-80 -3,-10 -11,-44 -8,-52zm76 -67c4,-13 62,-5 72,-5 6,8 19,20 12,32 -6,9 -54,15 -61,9 0,0 -1,-1 -1,-1l0 -1c0,-1 1,-2 1,-2 -8,-2 -11,-7 -26,-12 0,-5 -1,-8 1,-12 3,-7 0,-3 2,-8zm244 -50c-1,13 -4,17 -13,24 -7,6 -16,9 -26,12 -3,-2 -1,2 -2,-3 -7,2 -10,5 -18,4 -8,0 -9,-3 -17,-4 0,3 1,1 0,2 -11,-1 -13,-4 -19,-7 -6,-4 -9,-7 -12,-13 -11,-16 -3,-32 -3,-39 0,0 0,1 0,1 0,0 -1,0 -1,0l-1 2c-2,1 0,0 -2,2 -1,-16 10,-35 20,-44 34,-38 113,-4 97,63l-3 0zm-363 -3c0,12 10,16 13,24 -13,-2 -26,-9 -32,-20 -11,-19 -5,-22 -3,-36 -3,2 -2,1 -4,5 0,1 0,2 -1,3l0 1c-1,-1 -1,0 -2,-2 -1,-4 0,-15 1,-19 3,-15 15,-31 31,-39 23,-11 52,0 62,27 8,18 9,36 1,55 -6,15 -23,33 -43,26 -19,-7 -17,-20 -23,-25zm394 -107c-8,0 -22,-13 -42,-19 -20,-5 -35,-6 -59,-5 -10,1 -19,4 -30,2 -10,-2 -14,-24 18,-29 30,-6 60,-6 84,13 6,4 12,11 18,16 5,6 12,12 11,22zm-218 -67l1 -3 0 -2c-5,1 -11,1 -16,2 -3,1 -8,3 -12,4 -30,13 -77,13 -80,16 2,4 1,-1 2,5 -2,8 7,8 -5,20 -7,1 -6,0 -12,-2 -6,-1 -9,0 -14,-1 -16,-4 -10,-3 -29,-3 -20,0 -37,3 -51,9l-4 4c-12,6 -18,7 -18,-6 0,-6 9,-14 9,-25l-3 2c-1,0 -1,1 -2,1 -4,3 -30,68 -34,83 -2,6 2,28 3,34l5 71c2,43 1,98 18,138 8,17 18,36 31,50 12,14 26,29 42,40 7,6 41,33 49,35 8,1 5,4 13,5 9,1 7,0 14,3 5,2 10,2 15,4 5,2 5,3 12,5 23,5 35,10 62,10 12,1 22,0 33,-2 17,-3 16,-4 29,-7 16,-5 36,-14 51,-21 9,-3 54,-31 64,-38 22,-16 36,-30 52,-51 9,-12 6,-8 13,-20 2,-3 4,-7 6,-11l15 -34c11,-26 11,-57 15,-82 5,-32 8,-86 -2,-118 -3,-10 -13,-23 -18,-30l-21 -31c-14,-17 -27,-44 -35,-65 -2,-7 -7,-14 -10,-22 -2,-7 -6,-20 -11,-22 -4,1 -11,8 -16,11 -3,2 -4,4 -8,6 -19,13 -34,19 -56,29 0,0 -2,1 -2,1 -14,5 -12,6 -28,11 -6,2 -6,2 -10,4 -8,3 -30,7 -37,7l-3 -4c-7,1 -17,2 -24,2 1,-4 1,-9 7,-12z"/>
   <path class="fil2 str0" d="M1948 1470c-6,-2 -17,-9 -24,-13 -9,-4 -17,-7 -26,-11 -12,-4 -45,-16 -59,-17 0,19 6,42 2,60 -12,49 -64,56 -115,57 -6,0 -12,-1 -18,0 -15,2 -69,4 -83,4 -34,1 -112,5 -142,2 -14,-1 -18,-2 -28,-7 -8,-3 -18,-7 -29,-6 -8,0 -47,9 -61,11 -68,7 -118,-40 -140,-32 -5,2 -15,10 -20,14 -19,16 -20,20 -50,18 -18,-2 -14,-7 -25,4 -7,7 -13,8 -27,8 -49,0 -94,-2 -142,-2 -18,0 -210,-2 -217,0 -5,1 -15,9 -22,12 -11,5 -16,6 -30,6 -27,-1 -42,3 -64,-7 -9,-3 -14,-9 -21,-12 -6,-3 -166,-2 -181,-2 -21,0 -50,-2 -71,0 -20,2 -50,0 -72,0 -24,0 -49,-1 -72,-1 -31,0 -40,2 -48,-20 -6,-15 -1,-19 5,-25 13,-15 17,-14 30,-21l26 -23c6,-6 12,-11 17,-16 8,-8 50,-43 51,-49 -13,0 -24,3 -35,5l-69 14c-10,2 -30,5 -34,7 -2,1 1,0 -3,1 -5,3 -28,8 -42,13 -3,2 -3,2 -6,3 -17,5 -35,13 -49,23 -4,2 -7,6 -10,9 -5,3 -6,4 -9,9 -5,11 -3,27 7,35 13,10 13,11 30,20 18,9 38,16 58,22 5,1 10,2 16,4 25,7 57,15 83,20l34 6c6,1 11,2 17,3l54 8c17,2 26,2 37,4 24,4 122,14 150,16 12,0 26,2 38,3l39 2c12,1 27,2 39,3 3,0 7,0 10,0l70 5c14,0 26,0 41,1l82 2c12,2 27,0 40,1l209 1 143 -4c6,-1 14,0 20,0 26,-2 55,-2 80,-4l39 -3c24,0 54,-5 78,-5 13,0 27,-2 39,-3 53,-4 114,-12 167,-18 31,-4 129,-20 157,-28 5,-2 11,-2 16,-4 16,-4 33,-8 48,-13l22 -8c10,-3 26,-11 35,-16 9,-5 15,-7 23,-16 8,-8 12,-17 9,-28 -2,-6 -12,-18 -17,-22z"/>
   <path class="fil3" d="M917 1133c3,5 19,23 25,25l2 -20c21,-2 24,-1 40,25 4,7 7,14 12,21 5,7 11,12 11,21 -9,0 -9,-4 -13,-5 -6,-1 -3,0 -4,1 -4,4 0,44 0,54 -2,48 -63,38 -63,4 0,-21 7,-31 11,-48 4,-26 0,-29 -14,-44l-68 -56c-13,-11 -27,-30 -31,-32l1 4c-3,-3 -2,-2 -8,-2 -3,5 -2,8 -5,13 -2,4 -4,7 -7,11 -9,16 -24,43 -37,56 -4,5 -14,16 -19,19 -5,3 -1,0 -6,4l-2 2c-5,5 -9,8 -15,9 -6,2 -9,4 -14,6 -14,3 -13,6 -32,8 -18,1 -11,4 -36,2 2,-5 -1,-1 5,-5l5 -2c0,-1 0,-1 1,-1 -6,1 -12,3 -13,9 15,4 43,8 57,13 15,4 29,17 36,29 1,0 2,0 2,-1 3,-2 1,-2 3,-5l22 12c2,1 3,1 5,2 19,8 11,15 25,21 7,4 2,3 7,7 2,1 1,1 5,2 -5,-13 -7,-16 -15,-30 -4,-6 -11,-16 -11,-21 7,1 6,6 13,5l5 -1c10,-5 15,-21 18,-30 1,-3 -3,-27 7,-19 1,1 2,2 3,5 0,3 4,10 6,13 7,4 13,19 17,25 7,13 16,47 24,58 7,11 10,15 22,20 18,9 49,15 70,18 7,1 33,6 38,8l1 1c1,0 1,0 1,0l8 4c0,0 0,0 1,0 9,5 13,4 23,4 1,-10 -3,-24 -1,-49 1,-8 1,-14 2,-23 2,-17 0,-14 0,-18 1,-8 -1,-3 2,-5 2,-2 3,-43 3,-49 0,-22 -3,-28 -9,-45 -12,-30 -26,-41 -53,-61 -26,-18 -41,-28 -59,-55 -12,-18 -17,-18 -17,-39 1,-23 14,-31 18,-37l5 -4c1,-1 1,0 2,-2 -3,-4 -19,-15 -23,-17 -8,-5 -16,-13 -24,-17 1,6 -3,8 -6,12 -20,28 -38,64 -23,97 3,8 9,16 14,23l28 30c4,4 6,8 9,11l9 10c10,10 2,10 1,10 0,1 2,1 2,2l1 1c5,4 5,5 6,9l-6 -3z"/>
   <path class="fil4" d="M1239 1289c-2,-16 6,-23 7,-45 0,-8 0,-17 2,-24 0,0 5,-9 5,-9 5,-5 48,-31 60,-37 14,-7 18,-8 24,-11l4 -2c3,-3 6,-4 9,-5l31 -12c19,-6 23,-5 29,-7 14,-5 39,-8 52,-12 8,-2 64,-5 79,-3 4,1 6,2 8,2 19,4 23,11 28,15 4,2 3,1 6,4 7,7 13,15 20,21l26 34c3,4 5,8 8,12 5,6 14,18 17,24 5,11 18,22 27,30 0,0 1,0 1,1 4,4 8,7 8,14 -9,0 -22,-4 -29,-6l-6 -2c-2,-1 2,-1 -5,-1 -14,-2 -20,-2 -37,-5 -2,0 -5,0 -6,-1l-24 0c-34,0 -34,4 -43,5 -14,2 -23,7 -34,10 -19,6 -31,5 -43,-11 -5,-7 -14,-30 -16,-40 -1,-8 2,-19 -2,-25 -5,0 -3,0 -6,4 -11,14 -19,18 -28,40 -3,10 -9,18 -13,26 -3,7 -5,6 -9,11 -9,10 -26,20 -41,21 -12,1 -53,-2 -63,-5 0,0 -1,0 -1,0 0,0 0,0 -1,-1 -2,0 1,0 -3,0 -19,-3 -8,-2 -18,-4 -17,-3 -7,-2 -15,-4 -3,-1 -6,-2 -8,-2zm-55 -142c0,0 -2,2 -2,2 -1,0 -1,1 -2,1 0,0 -1,0 -1,1 -2,-4 0,-5 -3,-4 -4,0 0,-2 -5,3 -4,4 -2,4 -6,9 -4,5 -11,12 -14,18 2,2 4,2 6,4l-15 13c-19,1 -13,-12 -12,-23 -11,6 -16,1 -21,5l7 1 1 4c0,1 -1,3 -1,5 0,13 -14,12 -9,23 5,11 18,11 26,15 17,9 16,10 22,28 3,8 10,25 16,30 -5,1 -9,5 -14,7 -20,5 -7,-2 -33,10 -29,13 -16,8 -42,23 -9,6 -13,14 -27,16 -1,-12 -1,-28 -1,-40 1,-13 4,-26 3,-38 0,1 0,0 -1,2 -3,5 -2,76 -5,87 -1,6 -1,7 -9,8 -4,-7 -5,-25 -5,-35 0,-6 1,-7 1,-11 1,-18 0,-36 1,-54 -3,2 -1,-3 -2,5 0,4 2,1 0,18 -1,9 -1,15 -2,23 -2,25 2,39 1,49 -10,0 -14,1 -23,-4 -1,0 -1,0 -1,0l-8 -4c0,0 0,0 -1,0l-1 -1c-5,-2 -31,-7 -38,-8 -21,-3 -52,-9 -70,-18 -12,-5 -15,-9 -22,-20 -8,-11 -17,-45 -24,-58 -4,-6 -10,-21 -17,-25 2,10 8,19 11,36 8,33 8,71 2,104 -1,3 -2,7 -2,10 -2,5 -1,5 1,8 6,-1 3,-1 5,-2 3,0 4,0 7,0l30 0c6,-1 8,-2 15,-2 10,0 20,0 30,0 6,0 8,-1 28,-2 29,0 31,2 52,35l8 12c3,3 2,2 6,4 10,-16 54,-61 69,-75 7,-6 13,-10 20,-15 6,-6 15,-13 21,-17 21,-13 35,-16 61,-10 35,9 51,18 82,30 8,3 19,8 27,11 62,24 36,9 85,-5 11,-3 20,-3 34,-4l-2 -28c0,-10 1,-18 2,-27 1,-7 5,-43 14,-46 1,1 1,0 1,2 1,2 1,2 1,4l-3 19c0,10 1,16 2,25 2,15 7,28 14,43 5,10 4,10 19,10 13,0 16,2 26,-5 28,-21 70,-39 107,-43 9,-1 21,-1 29,-3 10,-1 31,2 42,4 19,5 13,2 36,9 9,3 15,7 25,9 -3,-8 -64,-76 -76,-88 -6,-6 -9,-11 -15,-18 -17,-19 -45,-51 -59,-70 -4,-7 -8,-12 -14,-18 -14,-17 -24,-18 -49,-18 -30,0 -37,1 -65,5 -4,1 -10,1 -15,2 -5,1 -10,2 -15,4l-54 14c-35,12 -62,22 -95,40 -22,12 -22,14 -40,26 -19,12 -20,12 -14,42 4,19 8,51 -21,51 -6,1 -12,1 -16,-1 -35,-16 -17,-51 -21,-72 -5,-1 -5,1 -12,1 3,-9 11,0 17,-27 2,-12 8,-20 12,-31z"/>
   <path class="fil5" d="M1239 1289c2,0 5,1 8,2 8,2 -2,1 15,4 10,2 -1,1 18,4 4,0 1,0 3,0 1,1 1,1 1,1 0,0 1,0 1,0 10,3 51,6 63,5 15,-1 32,-11 41,-21 4,-5 6,-4 9,-11 4,-8 10,-16 13,-26 9,-22 17,-26 28,-40 3,-4 1,-4 6,-4 4,6 1,17 2,25 2,10 11,33 16,40 12,16 24,17 43,11 11,-3 20,-8 34,-10 9,-1 9,-5 43,-5l24 0c1,1 4,1 6,1 17,3 23,3 37,5 7,0 3,0 5,1l6 2c7,2 20,6 29,6 0,-7 -4,-10 -8,-14 0,-1 -1,-1 -1,-1 -9,-8 -22,-19 -27,-30 -3,-6 -12,-18 -17,-24 -3,-4 -5,-8 -8,-12l-26 -34c-7,-6 -13,-14 -20,-21 -3,-3 -2,-2 -6,-4 -5,-4 -9,-11 -28,-15 -2,0 -4,-1 -8,-2 -15,-2 -71,1 -79,3 -13,4 -38,7 -52,12 -6,2 -10,1 -29,7l-31 12c-3,1 -6,2 -9,5l-4 2c-6,3 -10,4 -24,11 -12,6 -55,32 -60,37 0,0 -5,9 -5,9 -2,7 -2,16 -2,24 -1,22 -9,29 -7,45z"/>
   <path class="fil6" d="M1478 1433c5,4 1,1 4,6 3,-6 -2,-3 -2,-11 7,0 11,1 14,4l3 4c3,5 2,6 3,8 7,0 13,0 19,-3 0,-7 -3,-14 -6,-20 -1,-3 -7,-16 -8,-20 10,0 8,2 15,12 4,5 3,2 11,7 1,0 1,0 1,0 10,7 7,7 13,12l18 12c4,2 7,3 11,6 6,3 27,8 30,10l8 2c24,6 75,10 99,7 27,-4 24,-1 42,-9l8 -5c8,-5 13,-14 13,-23 2,-22 -11,-52 -25,-69 -9,-11 -18,-23 -29,-33 0,0 -1,-1 -1,-1l-1 -1c-8,-9 -48,-16 -64,-17 -11,-1 -14,-1 -25,0 -29,1 -44,3 -69,13 -4,2 -16,5 -17,10 5,3 20,2 26,4 9,1 16,4 25,6l33 11c6,2 8,1 7,8 -14,3 -41,0 -58,0 -20,-1 -39,-4 -59,-4 -22,-1 -40,2 -61,2 -16,-1 -24,-4 -45,-3 -3,0 -4,0 -7,1 -6,2 -3,0 -4,5 2,2 16,5 27,11 8,5 14,11 21,17 10,9 24,29 30,41z"/>
   <path class="fil7" d="M1041 1438l-2 8c3,-2 5,-4 7,-7 6,2 -3,1 5,2 10,1 12,-9 25,-22 2,-3 4,-4 7,-7 3,-2 4,-4 7,-7 15,-13 49,-44 73,-43l16 5c1,4 2,4 -2,8 -8,4 -54,48 -59,53 -4,5 -8,9 -13,15l-25 31c-5,7 4,13 10,15 6,-1 6,0 11,-2 12,-6 11,-13 19,-20 18,-20 65,-65 98,-61 3,3 4,5 6,9 0,9 -4,9 -9,14 -5,4 -9,7 -14,11 -30,24 -27,22 -51,49 -7,8 -17,19 -9,28 2,2 2,2 3,3 7,1 7,2 15,2 4,-5 -1,-3 14,-16 22,-20 27,-23 54,-37 8,-5 42,-14 54,-6 5,3 12,11 16,14 4,4 25,11 34,14 7,2 33,3 43,1 9,-1 16,-5 23,-8 8,-3 13,-6 18,-12 10,-12 4,-34 -2,-46 -8,-17 -13,-18 -18,-25 -4,-5 0,-2 -5,-11 -8,-2 -6,-2 -14,-2 -26,-1 -88,-28 -114,-38 -8,-2 -18,-6 -25,-9 -9,-4 -14,-6 -24,-9 -5,-2 -9,-3 -14,-4 -16,-5 -27,-7 -41,-1 -22,10 -41,25 -58,42 -11,10 -58,56 -59,69z"/>
   <path class="fil8" d="M258 1474c-10,3 -9,9 -16,16 -3,3 -12,12 -18,13l-5 5c-11,6 -17,6 -15,14 17,2 97,-1 120,-1 19,0 41,0 59,-2 16,-2 41,-1 60,-1 40,0 80,-1 120,-1 43,0 50,-4 75,14 4,3 12,9 19,10 7,2 20,2 29,1 11,0 14,-3 22,-7 12,-8 23,-15 41,-17 21,-1 92,2 118,3 20,1 39,2 58,3l118 3c12,1 52,3 58,-3 0,-2 0,-2 -1,-4 -5,-4 -18,-8 -23,-11l-34 -24 -1 3c-18,-1 -37,0 -55,-1 -17,-1 -34,-3 -50,-5 -41,-4 -114,-9 -155,1 -16,4 -45,13 -59,22 -5,3 -9,6 -14,11 -4,4 -9,11 -18,7 -2,-1 -13,-9 -15,-11 -5,-9 2,-29 2,-40l-1 1c-4,8 -3,29 -4,38 -9,0 -11,-8 -18,-12l1 4c-3,-1 -5,-3 -9,-5 -3,-3 -5,-3 -8,-5 -7,-3 -13,-5 -19,-8 -25,-9 -26,-7 -42,-12 -40,-13 -163,2 -211,4 -19,0 -36,1 -55,1 -18,0 -39,-1 -56,0 1,-2 1,-2 2,-4z"/>
   <path class="fil9" d="M1046 455c-6,3 -6,8 -7,12 7,0 17,-1 24,-2l3 4c7,0 29,-4 37,-7 4,-2 4,-2 10,-4 16,-5 14,-6 28,-11 0,0 2,-1 2,-1 22,-10 37,-16 56,-29 4,-2 5,-4 8,-6 5,-3 12,-10 16,-11 5,2 9,15 11,22 3,8 8,15 10,22 8,21 21,48 35,65l21 31c5,7 15,20 18,30 10,32 7,86 2,118 -4,25 -4,56 -15,82l-15 34c-2,4 -4,8 -6,11 -7,12 -4,8 -13,20 -16,21 -30,35 -52,51 -10,7 -55,35 -64,38 -15,7 -35,16 -51,21 -13,3 -12,4 -29,7 -11,2 -21,3 -33,2 -27,0 -39,-5 -62,-10 -7,-2 -7,-3 -12,-5 -5,-2 -10,-2 -15,-4 -7,-3 -5,-2 -14,-3 -8,-1 -5,-4 -13,-5 4,5 7,5 12,9 30,19 60,37 101,41 44,4 70,-11 99,-25 47,-22 110,-63 145,-96 11,-11 26,-32 33,-45 4,-7 10,-22 15,-25 3,2 4,4 6,7 2,2 5,5 8,7 5,4 10,8 19,9l-2 -2c-4,-5 -2,-4 -1,-6 1,-4 0,-8 1,-13 2,-15 6,-10 18,-13 4,-1 2,-1 7,-2 3,-1 4,-1 7,-2 0,0 1,-1 2,-2 7,-4 20,-13 23,-17 10,-14 11,-14 17,-30l18 -27c0,-1 1,-3 2,-5 4,-10 10,-15 3,-21l0 5c-1,0 -22,-14 -43,3 -15,12 -4,15 1,20 2,3 5,13 -1,12 -3,0 0,0 -2,-1 -5,-2 -2,-6 -12,-6 -8,8 -6,21 -10,31 -3,10 -9,22 -22,16 -2,-10 2,-11 4,-19 1,-6 2,-12 3,-19 4,-17 11,-23 14,-33l-6 1c1,-4 4,-5 2,-9 -2,0 -1,0 -4,4 -3,4 -1,3 -5,5l1 -7c-3,2 -8,13 -10,18 -6,10 -15,25 -24,33 -2,2 -18,9 -22,8l10 -59c3,-20 12,-104 7,-112 -2,-1 -4,-2 -6,-3 -5,-3 -12,-11 -16,-15 -6,-8 -12,-16 -17,-24 -34,-55 -43,-79 -54,-142 -2,-12 -1,-25 -2,-31l-1 -5 -36 43c-27,26 -61,49 -97,64 -17,6 -46,17 -68,17 0,-5 1,-5 3,-9z"/>
   <path class="fil4" d="M1478 1433c1,7 5,13 6,20 6,22 7,41 5,63 -1,5 -2,2 0,5 2,2 16,1 19,1 13,0 51,1 59,0 12,-2 27,0 39,-1 21,-3 72,-3 96,-4 7,0 12,-1 20,-1 19,0 52,-3 69,-11 37,-15 19,-79 7,-107 -8,-17 -20,-31 -33,-41 -11,-10 -31,-26 -47,-29l1 1c0,0 1,1 1,1 11,10 20,22 29,33 14,17 27,47 25,69 0,9 -5,18 -13,23l-8 5c-18,8 -15,5 -42,9 -24,3 -75,-1 -99,-7l-8 -2c-3,-2 -24,-7 -30,-10 -4,-3 -7,-4 -11,-6l-18 -12c-6,-5 -3,-5 -13,-12 0,0 0,0 -1,0 -8,-5 -7,-2 -11,-7 -7,-10 -5,-12 -15,-12 1,4 7,17 8,20 3,6 6,13 6,20 -6,3 -12,3 -19,3 -1,-2 0,-3 -3,-8l-3 -4c-3,-3 -7,-4 -14,-4 0,8 5,5 2,11 -3,-5 1,-2 -4,-6z"/>
   <path class="fil10" d="M258 1474c-1,2 -1,2 -2,4 17,-1 38,0 56,0 19,0 36,-1 55,-1 48,-2 171,-17 211,-4 16,5 17,3 42,12 6,3 12,5 19,8 3,2 5,2 8,5 4,2 6,4 9,5l-1 -4c-3,-14 -8,-10 -1,-36l8 -24c6,-12 -2,-5 -27,-11 -6,-2 -23,-3 -30,-3 -18,1 -69,-2 -88,-10 -13,-5 -6,-7 -25,-7 -21,-1 -71,-6 -92,-6 -12,0 -21,-2 -31,-2 -9,-1 -24,-3 -30,1 -7,4 -52,49 -65,59 -5,4 -12,10 -16,14z"/>
   <path class="fil11" d="M1486 880c-3,-6 -1,0 -5,-5l4 -2c2,0 1,1 4,0 0,-9 -3,-3 -5,-8 0,0 0,0 0,-1 0,0 0,0 0,0 1,-1 -2,-1 3,-1 2,0 3,0 4,0 -1,-1 -1,-1 -3,-2l-14 -4c-5,-1 -6,-1 -10,-1 -18,-3 -22,-6 -52,-8l-53 -10c-16,-5 -9,-5 -21,-9 -7,3 -19,26 -28,37 -6,7 -10,12 -16,18 -5,5 -12,10 -14,18 -4,13 -2,43 -2,60 0,20 0,38 13,49 8,0 16,-5 22,-7l76 -35c1,0 2,0 2,-1l63 -31c29,-18 41,-34 -2,-49 -6,-2 -5,-1 -12,-3 -6,-1 -19,-5 -25,-5 -7,-1 -8,-1 -13,-2l-14 -2c-16,-2 -9,0 -27,-3 -8,-2 -22,0 -21,-10 10,-2 41,2 60,2l55 6c5,1 10,2 15,3 4,1 5,1 7,2l9 4z"/>
   <path class="fil12" d="M1022 1025l0 -6c5,2 0,5 6,7 3,2 8,1 12,2 13,2 -2,2 23,5 53,6 76,-16 82,23 3,20 -5,42 -16,58 -4,5 -7,10 -12,14 -8,9 -10,10 -18,10 -8,0 -20,1 -26,-1l-16 -11c-8,-7 -16,-17 -22,-25 -6,-8 -6,-6 -6,-23l-4 4c0,1 -2,2 -4,2 1,-3 2,-3 2,-6 -5,4 -1,5 -9,7 -4,-8 -4,-27 -9,-34 -5,2 -7,7 -10,14 -10,18 -4,15 24,36 8,6 18,17 23,24 3,5 6,9 9,14 2,6 4,11 7,16 13,1 31,0 43,-2 21,-4 25,-16 46,-37 27,-26 62,-52 95,-72 9,-6 19,-10 27,-16 0,-3 -8,-17 -10,-22 -3,-10 -4,-16 -5,-27 -3,-20 1,-43 -1,-63 -7,0 -19,11 -25,15 -29,19 -102,60 -137,67 -19,4 -35,7 -57,4 -6,0 -15,-2 -19,-2 -1,4 3,19 7,25z"/>
   <path class="fil13" d="M738 1451c-1,-5 1,-7 4,-9 2,-1 3,-1 6,-2l11 -5c3,-1 0,0 5,-1 5,-2 8,-3 11,-4l28 -3c30,-2 130,-7 153,-4l-1 11 11 4 0 6c-11,1 -22,0 -32,1l-27 2c-2,1 -1,0 -3,1 1,4 1,4 5,5 2,1 6,1 9,2l17 2c10,1 27,1 34,5 0,4 -1,5 -7,5l-159 -16c-14,-1 -25,-3 -41,-3 -17,0 -16,5 -24,3zm-60 21c0,11 -7,31 -2,40 2,2 13,10 15,11 9,4 14,-3 18,-7 5,-5 9,-8 14,-11 14,-9 43,-18 59,-22 41,-10 114,-5 155,-1 16,2 33,4 50,5 18,1 37,0 55,1l1 -3c-2,-3 -7,-7 -10,-10 -12,-13 -35,-45 -44,-60 -4,-6 -13,-21 -17,-25 -13,-2 -26,1 -38,1 -8,1 -12,2 -18,2l-165 15c-14,3 -13,8 -23,14 -12,6 -22,3 -35,5 -3,6 -16,39 -15,45z"/>
   <path class="fil14" d="M508 1351l4 5c5,11 8,9 18,16 3,2 5,4 10,4l-1 -9c2,-10 -9,-28 -4,-40 4,2 2,0 4,4 0,0 2,4 2,5 2,4 3,6 5,10 2,4 6,18 9,20 18,2 20,16 32,7l1 -15c1,0 3,-1 4,-1l-1 -10c0,-8 -11,-40 -6,-46 7,0 7,7 12,20 1,3 7,20 9,21 1,1 1,-1 3,5 1,2 1,3 3,5 4,8 17,12 24,21 18,0 11,-4 14,-26 1,-6 0,-13 1,-18 0,-9 -3,-12 -3,-19 1,-8 -7,-21 -4,-30 7,-1 7,-1 12,12 2,6 5,11 7,17l12 32c6,1 2,-2 6,-1 2,1 25,33 27,-14 0,-6 -1,-13 0,-18 2,-4 2,-1 2,-7 0,-4 -1,-4 0,-9 0,-6 -9,-29 -13,-36 -8,-14 -20,-15 -33,-19l-41 -12c-17,-4 -25,9 -33,17 -8,8 -21,14 -30,21 -14,11 -51,36 -57,47 -3,8 2,37 5,41z"/>
   <path class="fil15" d="M1330 435c3,-3 3,-2 6,-2 4,10 9,35 13,46 8,19 8,28 13,47 4,19 -1,39 3,55 3,15 -1,41 0,58 0,0 1,-1 1,-1 1,2 4,-6 7,-9 2,-2 2,-2 4,-5 5,-8 13,-15 23,-21 3,-2 8,-4 12,-6 26,-10 39,-3 49,-4 9,-12 22,-51 26,-66l7 -33c3,-21 6,-38 1,-59 -2,-8 -1,-10 0,-13l7 1c-3,-2 -3,-2 -6,-5 -1,-2 -2,-4 -3,-5l-16 -22c-3,-4 -6,-4 -10,-4 -2,15 -1,33 -3,48 -2,15 -11,35 -20,45 -12,12 -5,8 -14,13l-8 5c-10,5 -15,5 -22,0l-4 -3c-6,-5 -11,-11 -16,-18 0,0 -1,-2 -1,-2 -8,-13 -8,-6 -13,-23 -1,-4 -2,-5 -4,-9 -1,-6 -1,-5 -4,-10 -3,-7 -2,-14 -4,-20 -2,-7 -3,-14 -5,-21l-12 -40c-1,-3 -2,-6 -3,-10 0,-1 -1,-4 -2,-5 -1,-2 -1,-1 -2,-3 -4,7 -1,19 1,26 5,21 -3,16 -1,24 1,2 3,5 2,10 -1,4 -4,3 -2,15 2,10 0,15 0,26zm-574 -107l6 -3c2,-1 3,-1 6,-1 4,-1 12,-1 16,-1 0,7 -6,10 -9,14 -10,12 -12,21 -17,28 -1,3 -1,5 -2,9 -1,16 6,11 18,3 2,-1 6,-2 8,-4l22 -17c17,-11 25,-23 41,-35 0,0 39,-27 31,-15 -3,5 -41,30 -45,42 9,-1 12,-8 11,5 -15,9 -2,1 -15,14 -5,5 -12,12 -13,18 7,-2 7,-7 12,-10l8 -3c2,-1 2,-1 3,-1 6,-3 1,-1 5,-3 3,-2 10,-3 14,-3 1,-1 1,-1 1,-1l-1 -1c0,0 0,0 0,0l47 -6c7,-1 17,0 24,-2l31 -7c3,-1 2,0 5,-1 11,-2 22,-9 36,-14 2,-1 1,-1 2,-2 2,-1 1,0 2,-1 8,-4 13,-4 23,-4l4 9c0,4 -1,9 -4,11 -1,3 -2,6 -3,9l-34 59c10,-4 7,0 27,-10 8,-5 4,0 18,-10l18 -11c3,-2 6,-4 11,-7 5,-4 5,-6 9,-9 5,-3 7,-5 10,-8 3,-3 6,-7 9,-10 16,-13 12,-11 28,-27 3,-3 6,-6 9,-9l19 -26c4,-5 0,-3 7,-4l1 2c1,2 1,-1 1,2 0,1 -1,4 -2,5l-18 52c-1,2 -1,2 -2,4 -2,3 -12,31 -19,45 -2,3 -3,3 -5,7 -2,5 -8,12 -8,16 3,0 3,-1 7,-2 7,-2 14,-4 22,-10 3,-2 3,-2 6,-4l31 -21c5,-3 7,-7 11,-10 8,-5 15,-14 21,-20 4,-4 5,-7 9,-12 8,-8 5,-6 9,-11 10,-12 10,-13 17,-23 7,-9 28,-45 35,-47 7,2 3,8 3,13 -1,8 0,13 -1,19 -2,8 -2,64 1,77 5,28 5,37 15,66 3,10 8,19 12,29 2,8 6,13 11,19 8,12 5,12 17,26 1,1 1,2 3,3l3 3c0,-26 -4,-49 -4,-76 0,-11 2,-16 0,-26 -2,-12 1,-11 2,-15 1,-5 -1,-8 -2,-10 -2,-8 6,-3 1,-24 -2,-7 -5,-19 -1,-26 1,2 1,1 2,3 1,1 2,4 2,5 1,4 2,7 3,10l12 40c2,7 3,14 5,21 2,6 1,13 4,20 3,5 3,4 4,10 2,4 3,5 4,9 5,17 5,10 13,23 0,0 1,2 1,2 5,7 10,13 16,18l4 3c7,5 12,5 22,0l8 -5c9,-5 2,-1 14,-13 9,-10 18,-30 20,-45 2,-15 1,-33 3,-48 4,0 7,0 10,4l16 22c1,1 2,3 3,5 3,3 3,3 6,5l12 31c6,-8 8,-58 6,-71 -6,-30 -8,-48 -26,-75 -4,-6 -13,-20 -18,-24l-29 -24c-3,-1 -6,-3 -8,-4l-23 -9c-3,-1 -7,-2 -9,-3 -1,-9 3,-8 12,-8 15,0 31,-2 45,2 7,2 11,5 19,6 -4,-9 -11,-12 -17,-18 -11,-9 -25,-16 -38,-21 -34,-11 -30,-6 -57,-3l-7 1c0,0 -3,1 -3,1 -6,2 -8,4 -16,4 0,-34 16,-53 -12,-101 -5,-9 -26,-39 -37,-41 2,18 9,19 8,45 0,5 2,46 -2,50 -5,-1 -2,1 -5,-2 -1,-2 -2,-3 -3,-4 -2,-4 -3,-5 -6,-8 -17,-19 -37,-36 -62,-49 -21,-10 -39,-18 -63,-24 -5,-1 -16,-4 -23,-5l-13 -2c-23,-2 -49,-3 -71,-1 -9,1 -18,1 -28,2 -16,3 -32,6 -48,10 -4,2 -6,2 -11,3l-11 4c-1,0 -1,0 -1,0 2,2 6,2 9,3l30 3c5,1 13,2 18,3 8,2 14,2 13,10 -4,0 -9,0 -14,-1 -10,0 -12,-2 -23,0 -4,1 -9,0 -14,0l-25 3c-63,12 -68,14 -121,42 -7,3 -11,6 -17,10 -11,6 -20,14 -33,20l-16 11c-11,7 -25,12 -37,17l-16 5c-6,2 -3,-1 -4,2 3,4 3,2 10,4 12,3 22,6 36,6 7,0 5,1 11,2 3,0 12,0 15,0 5,-1 1,-1 5,-1 3,-1 5,0 7,-1 8,0 5,-3 12,0l1 7c-12,5 -19,11 -29,18 -4,2 -7,3 -11,6 -33,25 -27,19 -50,44 -9,9 -35,49 -33,59l75 -29zm0 0l10 -1c0,7 -3,7 -10,15 -8,8 -11,11 -17,19 -1,1 -1,1 -2,3 -10,12 -16,34 -16,48 0,5 -2,7 -2,11 -1,8 1,37 4,42 2,-3 2,-8 4,-12l10 -23c2,-4 3,-8 10,-8 3,6 2,7 0,14 -3,12 -4,36 -4,49 0,15 10,51 19,53l14 -52c5,-15 17,-27 18,-37 -1,1 -3,1 -6,2 -11,4 -12,5 -16,5 -8,-2 -4,-12 0,-16 5,-6 8,-6 14,-9l32 -15c17,-6 25,-5 40,-9l19 -4c5,-1 6,-2 9,-3l57 -17c0,0 0,0 1,0 0,0 2,-1 2,-1 11,-4 42,-19 52,-25 3,-2 4,-3 7,-4 6,-4 3,-1 7,-5 3,-3 8,-8 14,-8l0 6c3,-2 4,-7 4,-11l-4 -9c-10,0 -15,0 -23,4 -1,1 0,0 -2,1 -1,1 0,1 -2,2 -14,5 -25,12 -36,14 -3,1 -2,0 -5,1l-31 7c-7,2 -17,1 -24,2l-47 6c0,0 0,0 0,0l1 1c0,0 0,0 -1,1 -4,0 -11,1 -14,3 -4,2 1,0 -5,3 -1,0 -1,0 -3,1l-8 3c-5,3 -5,8 -12,10 1,-6 8,-13 13,-18 13,-13 0,-5 15,-14 1,-13 -2,-6 -11,-5 4,-12 42,-37 45,-42 8,-12 -31,15 -31,15 -16,12 -24,24 -41,35l-22 17c-2,2 -6,3 -8,4 -12,8 -19,13 -18,-3 1,-4 1,-6 2,-9 5,-7 7,-16 17,-28 3,-4 9,-7 9,-14 -4,0 -12,0 -16,1 -3,0 -4,0 -6,1l-6 3z"/>
   <path class="fil6" d="M1501 895c0,8 2,12 1,23 2,-3 1,0 2,-4 1,-4 -1,-15 1,-17 15,36 -14,58 -44,81 -13,9 -37,22 -51,28 -7,3 -6,5 -13,7 -7,2 -42,22 -54,27l-39 21c-14,6 -34,15 -46,23l-20 12c-4,3 -8,6 -12,8 -8,5 -10,4 -19,10l-6 4c-13,11 -3,9 -21,11 -7,0 -17,11 -21,16l-13 13c-5,3 0,1 -5,2l1 -5 -4 4c-2,2 -7,9 -8,12 -1,11 -7,24 12,23l15 -13c-2,-2 -4,-2 -6,-4 3,-6 10,-13 14,-18 4,-5 2,-5 6,-9 5,-5 1,-3 5,-3 3,-1 1,0 3,4 0,-1 1,-1 1,-1 1,0 1,-1 2,-1 0,0 2,-2 2,-2 6,-6 6,-9 14,-14 12,-8 11,-4 23,-5 4,0 6,0 6,10 5,-2 3,3 4,-4 13,0 21,-8 31,-12 6,-2 3,-2 9,-5l20 -11c46,-22 57,-26 111,-42 13,-4 39,-9 48,-13 1,0 1,0 1,0l2 -1c2,-1 2,-1 6,-1 7,-1 25,-3 32,-5l17 -5c11,-1 14,-1 21,-6 14,-12 -11,-23 -22,-27 0,-6 4,-9 7,-14 4,-5 4,-8 7,-13 9,-18 6,-35 4,-50 -1,-9 -1,-9 -5,-16 -5,-11 -9,-15 -18,-22l-1 4z"/>
   <path class="fil16" d="M1486 880c9,2 9,10 15,15l1 -4c9,7 13,11 18,22 4,7 4,7 5,16 2,15 5,32 -4,50 -3,5 -3,8 -7,13 -3,5 -7,8 -7,14 11,4 36,15 22,27 -7,5 -10,5 -21,6l-17 5c-7,2 -25,4 -32,5 -4,0 -4,0 -6,1l-2 1c0,0 0,0 -1,0 -9,4 -35,9 -48,13 -54,16 -65,20 -111,42l-20 11c-6,3 -3,3 -9,5 -10,4 -18,12 -31,12 -1,7 1,2 -4,4 0,-10 -2,-10 -6,-10 8,11 -2,29 -1,48 6,-1 14,-10 18,-13 6,-5 13,-9 19,-14 21,-15 59,-35 85,-44 8,-3 16,-5 25,-8 29,-11 49,-16 79,-20 36,-5 91,-10 124,3 6,2 16,9 20,12 2,2 5,5 8,8 3,3 5,6 10,7 6,-70 -52,-103 -53,-105 -1,-9 1,-15 1,-24 1,-38 3,-68 -28,-97 -7,-6 -25,-16 -37,-18 -1,0 -2,0 -4,0 -5,0 -2,0 -3,1 0,0 0,0 0,0 0,1 0,1 0,1 2,5 5,-1 5,8 -3,1 -2,0 -4,0l-4 2c4,5 2,-1 5,5z"/>
   <path class="fil17" d="M1033 869c-13,0 -32,-1 -42,-6 -4,-1 -23,-12 -25,-16 -4,-9 20,-20 27,-23 10,-3 17,-5 28,-5 10,0 10,2 23,2 10,-1 18,0 26,1 7,1 14,4 20,7 2,1 14,9 15,10 10,11 -38,26 -48,27 -10,1 -11,3 -24,3zm-79 -99c7,0 12,2 19,2l144 7c1,8 -1,15 -7,18 -3,2 -6,4 -9,4 -22,2 -97,-2 -119,-5 -26,-3 -28,-10 -28,-26zm185 -4c-27,1 -139,-8 -167,-10l-46 -3c-10,-2 -2,-4 -13,-4 -3,8 5,42 8,52 9,32 38,71 79,80 24,4 38,5 63,2 12,-1 37,-14 45,-21 5,-6 11,-10 16,-15 8,-9 19,-28 24,-38 3,-8 5,-16 7,-24 0,-4 1,-9 1,-14 -1,-8 -3,-8 -6,-9 -6,2 -1,4 -11,4z"/>
   <path class="fil9" d="M1144 1520c6,8 23,8 37,0 10,-7 18,-13 26,-20 7,-6 19,-14 28,-19 7,-4 42,-16 40,-4 -1,4 -6,4 -11,5 -3,1 -12,5 -14,7 1,5 -2,1 3,4l39 19c15,6 38,11 55,12 33,1 68,-18 102,-17 7,0 10,2 17,1 13,-36 -21,-116 -76,-118 5,9 1,6 5,11 5,7 10,8 18,25 6,12 12,34 2,46 -5,6 -10,9 -18,12 -7,3 -14,7 -23,8 -10,2 -36,1 -43,-1 -9,-3 -30,-10 -34,-14 -4,-3 -11,-11 -16,-14 -12,-8 -46,1 -54,6 -27,14 -32,17 -54,37 -15,13 -10,11 -14,16 -8,0 -8,-1 -15,-2z"/>
   <path class="fil18" d="M1100 1520c1,2 1,2 1,4 -6,6 -46,4 -58,3l-118 -3c-19,-1 -38,-2 -58,-3 -26,-1 -97,-4 -118,-3 -18,2 -29,9 -41,17 -8,4 -11,7 -22,7 -9,1 -22,1 -29,-1 -7,-1 -15,-7 -19,-10 -25,-18 -32,-14 -75,-14 -40,0 -80,1 -120,1 -19,0 -44,-1 -60,1 -18,2 -40,2 -59,2 -23,0 -103,3 -120,1 -2,-8 4,-8 15,-14l5 -5c-3,1 -5,1 -8,2 -2,1 0,0 -2,1 -9,4 -11,5 -19,10 -5,4 -1,0 -4,4 -18,23 39,14 61,14 12,0 23,0 35,0 13,0 22,-1 33,-1 12,0 24,0 35,0 8,0 8,-2 15,-2l86 -1c25,0 45,-2 69,-2 23,0 46,0 70,0 14,0 20,-1 28,6 6,5 10,11 18,15 13,8 44,9 61,4 8,-2 16,-8 20,-13 6,-5 9,-11 22,-11 23,0 47,1 70,1 12,0 20,1 32,2 9,0 27,-1 35,0 13,2 18,2 33,2 8,0 7,2 14,2 6,0 12,0 18,0 24,0 43,2 67,2 9,0 9,2 15,2l53 1c9,0 26,2 31,-4 5,-6 2,-15 -12,-17z"/>
   <path class="fil19 str1" d="M102 518c1,5 1,4 8,5 8,2 20,8 27,11 34,17 47,47 57,78 1,3 1,6 2,9 4,-2 1,0 3,-4 3,-5 5,-20 10,-31 6,-14 9,-21 18,-32 18,-21 42,-24 60,-30 8,-3 6,-3 6,-6 -5,-2 -14,-3 -20,-6 -17,-8 -34,-15 -46,-28 -11,-12 -17,-30 -23,-47 -2,-5 -3,-10 -6,-15l-1 -1c-3,6 -2,13 -4,19l-7 16c-4,8 -12,24 -18,29 -4,4 -9,9 -13,11l-15 9c-9,6 -10,5 -18,7 -3,1 -7,3 -9,4 -4,1 -7,1 -11,2z"/>
   <path class="fil20" d="M1057 1260c1,12 -2,25 -3,38 0,12 0,28 1,40 14,-2 18,-10 27,-16 26,-15 13,-10 42,-23 26,-12 13,-5 33,-10 5,-2 9,-6 14,-7 -6,-5 -13,-22 -16,-30 -6,-18 -5,-19 -22,-28 -8,-4 -21,-4 -26,-15 -5,-11 9,-10 9,-23 0,-2 1,-4 1,-5l-1 -4 -7 -1c-7,0 -30,4 -37,3 -5,0 -8,-2 -12,1 -4,3 -1,13 -1,19 0,12 -3,57 -2,61z"/>
   <path class="fil21" d="M1022 1025c-1,5 2,19 3,25 0,5 0,11 0,15 0,5 -2,9 -2,13 0,3 -1,3 -2,6 2,0 4,-1 4,-2l4 -4c0,17 0,15 6,23 6,8 14,18 22,25l16 11c6,2 18,1 26,1 8,0 10,-1 18,-10 5,-4 8,-9 12,-14 11,-16 19,-38 16,-58 -6,-39 -29,-17 -82,-23 -25,-3 -10,-3 -23,-5 -4,-1 -9,0 -12,-2 -6,-2 -1,-5 -6,-7l0 6z"/>
   <path class="fil22" d="M1379 672l-1 7c4,-2 2,-1 5,-5 3,-4 2,-4 4,-4 2,4 -1,5 -2,9l6 -1c4,-4 7,-10 13,-14 5,-4 12,-7 18,-10 17,-7 32,4 37,15 7,6 1,11 -3,21 -1,2 -2,4 -2,5l-18 27c-6,16 -7,16 -17,30 -3,4 -16,13 -23,17 -1,1 -2,2 -2,2 -3,1 -4,1 -7,2 -5,1 -3,1 -7,2 -12,3 -16,-2 -18,13 -1,5 0,9 -1,13 -1,2 -3,1 1,6l2 2c5,3 22,1 27,-1 36,-11 64,-40 80,-68 9,-15 11,-25 14,-43 4,-25 -6,-66 -39,-75 -37,-11 -67,39 -67,50z"/>
   <path class="fil23" d="M1123 608c0,-7 13,-24 21,-29 6,-3 15,-1 18,5 2,6 0,15 -5,20 -4,1 -5,1 -8,0 0,0 -2,-2 -2,-2l-5 -3c-5,14 -2,40 6,54 2,5 7,8 9,12 8,1 9,4 17,4 8,1 11,-2 18,-4 2,-3 6,-4 12,-16 3,-6 6,-12 7,-20 5,-32 -3,-40 -4,-47 13,2 27,41 26,50l3 0c16,-67 -63,-101 -97,-63 -10,9 -21,28 -20,44 2,-2 0,-1 2,-2l1 -2c0,0 1,0 1,0 0,0 0,-1 0,-1z"/>
   <path class="fil24" d="M1502 918c-5,7 -5,11 -14,21 -27,27 -84,51 -121,67 -40,18 -63,29 -101,51 -31,17 -62,39 -88,61 -5,4 -34,32 -36,37l-1 5c5,-1 0,1 5,-2l13 -13c4,-5 14,-16 21,-16 18,-2 8,0 21,-11l6 -4c9,-6 11,-5 19,-10 4,-2 8,-5 12,-8l20 -12c12,-8 32,-17 46,-23l39 -21c12,-5 47,-25 54,-27 7,-2 6,-4 13,-7 14,-6 38,-19 51,-28 30,-23 59,-45 44,-81 -2,2 0,13 -1,17 -1,4 0,1 -2,4z"/>
   <path class="fil9" d="M812 476c1,0 1,-1 2,-1l3 -2c0,11 -9,19 -9,25 0,13 6,12 18,6l4 -4c-8,2 -10,6 -17,6 -2,-10 21,-32 33,-37 21,-10 36,-14 61,-9 13,3 21,6 29,14 1,0 1,1 2,1 3,2 -1,0 3,2 -1,-6 0,-1 -2,-5 3,-3 50,-3 80,-16 4,-1 9,-3 12,-4 5,-1 11,-1 16,-2l0 2c8,-3 28,-42 29,-46l-30 17c-28,14 -38,21 -69,27 -15,3 -29,6 -46,5 -2,-7 3,-10 7,-13 7,-7 27,-29 28,-36 -5,1 -14,5 -20,8 -7,2 -15,5 -22,6 -14,4 -29,9 -45,11 -10,2 -38,9 -44,13 -6,4 -21,25 -23,32z"/>
   <path class="fil25" d="M848 597c-2,-5 15,-38 38,-36l0 7c0,0 1,0 1,0 1,1 1,0 2,2 4,4 5,22 -8,21 -9,-1 -1,-4 -7,-6 -6,2 -6,16 -6,21 0,9 2,16 2,23 6,5 4,18 23,25 20,7 37,-11 43,-26 8,-19 7,-37 -1,-55 -10,-27 -39,-38 -62,-27 -16,8 -28,24 -31,39 -1,4 -2,15 -1,19 1,2 1,1 2,2l0 -1c1,-1 1,-2 1,-3 2,-4 1,-3 4,-5z"/>
   <path class="fil26" d="M738 1451c8,2 7,-3 24,-3 16,0 27,2 41,3l159 16c6,0 7,-1 7,-5 -7,-4 -24,-4 -34,-5l-17 -2c-3,-1 -7,-1 -9,-2 -4,-1 -4,-1 -5,-5 2,-1 1,0 3,-1l27 -2c10,-1 21,0 32,-1l0 -6 -11 -4 1 -11c-23,-3 -123,2 -153,4l-28 3c-3,1 -6,2 -11,4 -5,1 -2,0 -5,1l-11 5c-3,1 -4,1 -6,2 -3,2 -5,4 -4,9z"/>
   <path class="fil27" d="M736 1254c19,30 32,23 48,51 5,9 9,27 7,39 -3,13 -16,25 -16,32 8,0 12,-1 21,-1 9,0 12,-2 14,-9 4,-20 -5,-27 -5,-36 5,0 7,1 11,2 2,-10 8,-16 9,-29 1,-14 1,-22 0,-36 0,-17 -9,-56 -8,-69 4,0 5,1 8,3 -1,-3 -2,-4 -3,-5 -10,-8 -6,16 -7,19 -3,9 -8,25 -18,30l-5 1c-7,1 -6,-4 -13,-5 0,5 7,15 11,21 8,14 10,17 15,30 -4,-1 -3,-1 -5,-2 -5,-4 0,-3 -7,-7 -14,-6 -6,-13 -25,-21 -2,-1 -3,-1 -5,-2l-22 -12c-2,3 0,3 -3,5 0,1 -1,1 -2,1z"/>
   <path class="fil19 str1" d="M382 597c19,8 31,27 36,44 4,13 2,9 6,10 3,-7 4,-16 8,-23 5,-8 7,-11 14,-18 10,-11 19,-13 33,-17 12,-4 9,-3 10,-5 -2,-2 -9,-4 -12,-6l-8 -3c0,0 -1,0 -1,0 0,0 0,0 -1,-1 -5,-3 2,1 -1,-1 -7,-4 -9,0 -22,-13 -6,-7 -7,-11 -12,-20 -2,-4 -3,-6 -5,-10 -1,-5 -1,-9 -4,-12l-3 7c-6,28 -26,46 -57,56l-5 3 24 9z"/>
   <path class="fil28" d="M1033 869c13,0 14,-2 24,-3 10,-1 58,-16 48,-27 -1,-1 -13,-9 -15,-10 -6,-3 -13,-6 -20,-7 -8,-1 -16,-2 -26,-1 -13,0 -13,-2 -23,-2 -11,0 -18,2 -28,5 -7,3 -31,14 -27,23 2,4 21,15 25,16 10,5 29,6 42,6z"/>
   <path class="fil24" d="M656 1203c-1,0 -1,0 -1,1l-5 2c-6,4 -3,0 -5,5 25,2 18,-1 36,-2 19,-2 18,-5 32,-8 5,-2 8,-4 14,-6 6,-1 10,-4 15,-9l2 -2c5,-4 1,-1 6,-4 5,-3 15,-14 19,-19 13,-13 28,-40 37,-56 3,-4 5,-7 7,-11 3,-5 2,-8 5,-13 6,0 5,-1 8,2l-1 -4c-1,-3 -6,-7 -10,-9 -15,0 -44,46 -51,57 -31,43 -41,51 -95,71 -3,1 -12,4 -13,5z"/>
   <path class="fil29" d="M917 1133l6 3c-1,-4 -1,-5 -6,-9l-1 -1c0,-1 -2,-1 -2,-2 1,0 9,0 -1,-10l-9 -10c-3,-3 -5,-7 -9,-11l-28 -30c-5,-7 -11,-15 -14,-23 -15,-33 3,-69 23,-97 3,-4 7,-6 6,-12 -6,-10 -16,3 -24,14 -7,8 -13,18 -18,27 -11,21 -19,44 -10,69 7,18 27,39 38,51 6,5 46,40 49,41z"/>
   <path class="fil19 str1" d="M582 547c4,-4 2,-6 4,-11 4,-14 16,-31 33,-36 11,-4 22,-5 16,-9 -1,0 -26,-6 -36,-21 -13,-16 -10,-32 -16,-37 -3,3 -7,28 -17,39 -14,15 -34,17 -38,20 0,6 2,4 8,5 8,2 14,6 19,9 18,7 24,37 27,41z"/>
   <path class="fil30" d="M1110 797c6,-3 8,-10 7,-18l-144 -7c-7,0 -12,-2 -19,-2 0,16 2,23 28,26 22,3 97,7 119,5 3,0 6,-2 9,-4z"/>
   <path class="fil11" d="M922 971l7 -1c1,2 0,1 1,3 1,6 -5,11 -8,22 -4,15 4,15 9,24 36,57 36,33 43,27 11,-9 13,-11 12,-31 0,-3 -1,-6 -1,-9 -1,-3 0,-7 -1,-11l-55 -30c-1,2 -1,1 -2,2l-5 4z"/>
   <path class="fil31" d="M1264 522c1,-10 -6,-16 -11,-22 -6,-5 -12,-12 -18,-16 -24,-19 -54,-19 -84,-13 -32,5 -28,27 -18,29 11,2 20,-1 30,-2 24,-1 39,0 59,5 20,6 34,19 42,19z"/>
   <path class="fil31" d="M830 500c14,-6 31,-9 51,-9 19,0 13,-1 29,3 5,1 8,0 14,1 6,2 5,3 12,2 12,-12 3,-12 5,-20 -4,-2 0,0 -3,-2 -1,0 -1,-1 -2,-1 -8,-8 -16,-11 -29,-14 -25,-5 -40,-1 -61,9 -12,5 -35,27 -33,37 7,0 9,-4 17,-6z"/>
   <path class="fil32" d="M765 733l-7 -119c-1,-18 4,-50 -17,-17 -28,45 4,135 24,136z"/>
   <path class="fil33" d="M1183 1239c0,26 22,29 29,15 4,-8 -3,-33 -3,-52 0,-15 1,-38 5,-52 2,-5 4,-11 4,-16 -20,1 -28,27 -31,41 -3,17 -4,45 -4,64z"/>
   <path class="fil32" d="M1041 709c0,-9 11,-15 21,-11l1 6c-3,2 -18,5 -22,5zm-52 -12c0,-19 25,0 24,11 -10,1 -8,-4 -24,-11zm-3 5c15,5 18,10 26,12 0,0 -1,1 -1,2l0 1c0,0 1,1 1,1 7,6 55,0 61,-9 7,-12 -6,-24 -12,-32 -10,0 -68,-8 -72,5 -2,5 1,1 -2,8 -2,4 -1,7 -1,12z"/>
   <path class="fil30" d="M951 1139c-1,9 1,11 2,19 4,18 2,39 0,56 -1,13 -5,23 -8,35 -2,11 6,26 18,21 13,-5 11,-17 11,-31 0,-20 4,-66 -2,-78 -4,-9 -9,-21 -21,-22z"/>
   <path class="fil34" d="M1391 678c-3,10 -10,16 -14,33 -1,7 -2,13 -3,19 -2,8 -6,9 -4,19 13,6 19,-6 22,-16 4,-10 2,-23 10,-31 10,0 7,4 12,6 2,1 -1,1 2,1 6,1 3,-9 1,-12 -5,-5 -16,-8 -1,-20 21,-17 42,-3 43,-3l0 -5c-5,-11 -20,-22 -37,-15 -6,3 -13,6 -18,10 -6,4 -9,10 -13,14z"/>
   <path class="fil12" d="M675 1341l14 46c11,24 33,15 36,3 3,-13 -2,-37 -4,-50 -1,-9 -3,-16 -5,-25 -1,-6 -2,-14 -4,-20l-2 -3c-1,5 0,5 0,9 0,6 0,3 -2,7 -1,5 0,12 0,18 -2,47 -25,15 -27,14 -4,-1 0,2 -6,1z"/>
   <path class="fil12" d="M1041 1438c-9,6 1,15 5,18 9,6 16,3 23,-3 5,-4 11,-10 16,-16 14,-16 30,-34 48,-48 6,-4 32,-23 44,-21l0 7c4,-4 3,-4 2,-8l-16 -5c-24,-1 -58,30 -73,43 -3,3 -4,5 -7,7 -3,3 -5,4 -7,7 -13,13 -15,23 -25,22 -8,-1 1,0 -5,-2 -2,3 -4,5 -7,7l2 -8z"/>
   <path class="fil12" d="M1090 1489c0,0 0,0 0,0l3 2c20,10 26,4 35,-5 23,-24 30,-33 57,-54 7,-4 30,-18 39,-17 -2,-4 -3,-6 -6,-9 -33,-4 -80,41 -98,61 -8,7 -7,14 -19,20 -5,2 -5,1 -11,2z"/>
   <path class="fil35 str1" d="M368 410c5,-5 6,-20 13,-27 7,-9 26,-12 26,-15 -1,-4 -9,-5 -13,-7 -24,-12 -20,-29 -25,-38 -4,4 -5,31 -27,37 0,0 -27,6 -11,10 18,5 23,7 31,25 3,4 3,11 6,15z"/>
   <path class="fil36" d="M606 1342c1,8 14,37 17,45 8,15 18,25 42,15 10,-4 6,-12 4,-20 -3,-8 -4,-16 -6,-24 -2,-6 -11,-43 -15,-48 0,7 3,10 3,19 -1,5 0,12 -1,18 -3,22 4,26 -14,26 -7,-9 -20,-13 -24,-21 -2,-2 -2,-3 -3,-5 -2,-6 -2,-4 -3,-5z"/>
   <path class="fil13" d="M848 597c-2,14 -8,17 3,36 6,11 19,18 32,20 -3,-8 -13,-12 -13,-24 0,-7 -2,-14 -2,-23 0,-5 0,-19 6,-21 6,2 -2,5 7,6 13,1 12,-17 8,-21 -1,-2 -1,-1 -2,-2 0,0 -1,0 -1,0l0 -7c-23,-2 -40,31 -38,36z"/>
   <path class="fil10" d="M1123 608c0,7 -8,23 3,39 3,6 6,9 12,13 6,3 8,6 19,7 1,-1 0,1 0,-2 -2,-4 -7,-7 -9,-12 -8,-14 -11,-40 -6,-54l5 3c0,0 2,2 2,2 3,1 4,1 8,0 5,-5 7,-14 5,-20 -3,-6 -12,-8 -18,-5 -8,5 -21,22 -21,29z"/>
   <path class="fil37" d="M555 1366c0,4 12,32 23,35 1,1 8,2 9,2 8,1 18,0 23,-2 0,-3 -12,-38 -16,-47l-1 -5c0,0 -1,0 -1,-1l-1 -1 1 10c-1,0 -3,1 -4,1l-1 15c-12,9 -14,-5 -32,-7z"/>
   <path class="fil38" d="M1192 665c1,5 -1,1 2,3 10,-3 19,-6 26,-12 9,-7 12,-11 13,-24 1,-9 -13,-48 -26,-50 1,7 9,15 4,47 -1,8 -4,14 -7,20 -6,12 -10,13 -12,16z"/>
   <path class="fil12" d="M735 1322c2,12 3,37 10,43 9,-3 26,-22 23,-36 -1,-6 -1,-11 -5,-15 0,6 1,6 0,10 -15,5 -17,-4 -24,-15 -3,9 -5,5 -4,13z"/>
   <path class="fil39" d="M735 1322c-1,-8 1,-4 4,-13 7,11 9,20 24,15 1,-4 0,-4 0,-10 0,-6 -11,-14 -16,-17 -8,-4 -17,-12 -22,-13 0,12 8,20 10,38z"/>
   <path class="fil40" d="M539 1367l1 9c-5,0 -7,-2 -10,-4 -10,-7 -13,-5 -18,-16l-4 -5c1,9 8,23 12,31 6,12 12,17 30,16 0,-8 -3,-9 -5,-16 -2,-4 -2,-13 -6,-15z"/>
   <path class="fil41" d="M989 697c16,7 14,12 24,11 1,-11 -24,-30 -24,-11z"/>
   <path class="fil42" d="M1041 709c4,0 19,-3 22,-5l-1 -6c-10,-4 -21,2 -21,11z"/>
  </g>
 </g>
</svg>
